# xmcd
#
# Track frame offsets:
#	150
#	17503
#	39539
#	55321
#	73612
#	89788
#	107211
#	129483
#	147672
#	177471
#	192617
#	216532
#	243017
#
# Disc length: 3682 seconds
#
# Revision: 1
# Processed by: cddbd v1.5.2PL0 Copyright (c) Steve Scherf et al.
# Submitted via: Jack! The Knife 19 Blackthorn
#
DISCID=cd0e600d
DTITLE=Helloween - My God-Given Right
DYEAR=2015
DGENRE=Metal
TTITLE0=Heroes
TTITLE1=Battle's Won
TTITLE2=My God-Given Right
TTITLE3=Stay Crazy
TTITLE4=Lost In America
TTITLE5=Russian Roulé
TTITLE6=The Swing Of A Fallen World
TTITLE7=Like Everybody Else
TTITLE8=Creatures In Heaven
TTITLE9=If God Loves Rock 'N' Roll
TTITLE10=Living On The Edge
TTITLE11=Claws
TTITLE12=You, Still Of War
EXTD=Charlie Bauerfeind
EXTT0=Sascha Gerstner
EXTT1=Michael Weikath
EXTT2=Andi Deris
EXTT3=Andi Deris
EXTT4=Andi Deris
EXTT5=Deris, Gerstner
EXTT6=Andi Deris
EXTT7=Sascha Gerstner
EXTT8=Michael Weikath
EXTT9=Andi Deris
EXTT10=Markus Grosskopf
EXTT11=Michael Weikath
EXTT12=Gerstner, Deris
PLAYORDER=
